<?xml version="1.0" encoding="utf-8" standalone="no"?><!DOCTYPE svg PUBLIC "-//W3C//DTD SVG 20010904//EN" "http://www.w3.org/TR/2001/REC-SVG-20010904/DTD/svg10.dtd"><svg xmlns="http://www.w3.org/2000/svg" width="747" height="334" xmlns:xlink="http://www.w3.org/1999/xlink"><source><![CDATA[Requirements->Design:Requirements doc
Design->Implementation:Architecture doc
Implementation->Verification:Software
Verification-->Implementation:QA failed
Verification->Done:Release

]]></source><desc></desc><defs><marker viewBox="0 0 5 5" markerWidth="5" markerHeight="5" orient="auto" refX="5" refY="2.5" id="markerArrowBlock"><path d="M 0 0 L 5 2.5 L 0 5 z"></path></marker><marker viewBox="0 0 9.6 16" markerWidth="4" markerHeight="16" orient="auto" refX="9.6" refY="8" id="markerArrowOpen"><path d="M 9.6,8 1.92,16 0,13.7 5.76,8 0,2.286 1.92,0 9.6,8 z"></path></marker></defs><g class="title"></g><g class="actor"><path d="M10,20C68.5,14.5 77.2,25.5 146.9,20.0C145.2,30.1 148.5,26.7 146.9,62.0C114.0,56.5 71.6,67.5 10.0,62.0C8.3,44.9 11.7,51.9 10.0,20.0" stroke="#000000" fill="#ffffff" style="stroke-width: 2;"></path><text x="21" y="43" style="font-size: 16px; font-family: danielbd;"><tspan x="20">Requirements</tspan></text></g><g class="actor"><path d="M10,272C121.5,277.5 95.3,266.5 146.9,272.0C148.5,290.5 145.2,303.9 146.9,314.0C125.0,319.5 114.0,308.5 10.0,314.0C11.7,278.7 8.3,301.1 10.0,272.0" stroke="#000000" fill="#ffffff" style="stroke-width: 2;"></path><text x="21" y="295" style="font-size: 16px; font-family: danielbd;"><tspan x="20">Requirements</tspan></text></g><path d="M78.4,62.0C70.0,221.6 86.8,180.9 78.4,272.0" stroke="#000000" fill="none" style="stroke-width: 2;"></path><g class="actor"><path d="M214.8984375,20C242.6,23.1 273.0,16.9 291.3,20.0C293.0,41.1 289.6,44.9 291.3,62.0C243.7,65.1 273.0,58.9 214.9,62.0C216.6,42.9 213.2,26.7 214.9,20.0" stroke="#000000" fill="#ffffff" style="stroke-width: 2;"></path><text x="225.8984375" y="43" style="font-size: 16px; font-family: danielbd;"><tspan x="224.8984375">Design</tspan></text></g><g class="actor"><path d="M214.8984375,272C242.1,275.1 273.0,268.9 291.3,272.0C293.0,278.7 289.6,303.3 291.3,314.0C233.2,317.1 273.0,310.9 214.9,314.0C216.6,301.1 213.2,303.7 214.9,272.0" stroke="#000000" fill="#ffffff" style="stroke-width: 2;"></path><text x="225.8984375" y="295" style="font-size: 16px; font-family: danielbd;"><tspan x="224.8984375">Design</tspan></text></g><path d="M253.1,62.0C244.7,238.4 261.5,183.4 253.1,272.0" stroke="#000000" fill="none" style="stroke-width: 2;"></path><g class="actor"><path d="M348.7890625,20C431.2,14.1 472.4,25.9 496.0,20.0C494.3,51.9 497.7,30.1 496.0,62.0C374.6,56.1 388.6,67.9 348.8,62.0C350.5,44.9 347.1,52.4 348.8,20.0" stroke="#000000" fill="#ffffff" style="stroke-width: 2;"></path><text x="359.7890625" y="44.5" style="font-size: 16px; font-family: danielbd;"><tspan x="358.7890625">Implementation</tspan></text></g><g class="actor"><path d="M348.7890625,272C372.3,277.9 389.8,266.1 496.0,272.0C494.3,282.1 497.7,294.5 496.0,314.0C472.4,308.1 407.3,319.9 348.8,314.0C347.1,286.9 350.5,278.7 348.8,272.0" stroke="#000000" fill="#ffffff" style="stroke-width: 2;"></path><text x="359.7890625" y="296.5" style="font-size: 16px; font-family: danielbd;"><tspan x="358.7890625">Implementation</tspan></text></g><path d="M422.4,62.0C430.8,221.6 414.0,238.4 422.4,272.0" stroke="#000000" fill="none" style="stroke-width: 2;"></path><g class="actor"><path d="M515.9765625,20C564.4,24.7 554.0,15.3 632.6,20.0C630.9,26.7 634.3,55.3 632.6,62.0C613.9,66.7 536.4,57.3 516.0,62.0C517.7,46.1 514.3,42.7 516.0,20.0" stroke="#000000" fill="#ffffff" style="stroke-width: 2;"></path><text x="526.9765625" y="46" style="font-size: 16px; font-family: danielbd;"><tspan x="525.9765625">Verification</tspan></text></g><g class="actor"><path d="M515.9765625,272C534.6,276.7 575.5,267.3 632.6,272.0C634.3,282.1 630.9,282.9 632.6,314.0C613.9,309.3 552.0,318.7 516.0,314.0C514.3,303.6 517.7,287.4 516.0,272.0" stroke="#000000" fill="#ffffff" style="stroke-width: 2;"></path><text x="526.9765625" y="298" style="font-size: 16px; font-family: danielbd;"><tspan x="525.9765625">Verification</tspan></text></g><path d="M574.3,62.0C565.9,112.4 582.7,209.3 574.3,272.0" stroke="#000000" fill="none" style="stroke-width: 2;"></path><g class="actor"><path d="M652.5859375,20C707.4,17.4 663.0,22.6 717.9,20.0C716.2,40.1 719.6,30.3 717.9,62.0C694.1,64.6 701.3,59.4 652.6,62.0C650.9,39.0 654.3,35.9 652.6,20.0" stroke="#000000" fill="#ffffff" style="stroke-width: 2;"></path><text x="663.5859375" y="46" style="font-size: 16px; font-family: danielbd;"><tspan x="662.5859375">Done</tspan></text></g><g class="actor"><path d="M652.5859375,272C702.2,269.4 688.7,274.6 717.9,272.0C716.2,303.9 719.6,307.3 717.9,314.0C697.1,316.6 668.3,311.4 652.6,314.0C650.9,280.7 654.3,307.3 652.6,272.0" stroke="#000000" fill="#ffffff" style="stroke-width: 2;"></path><text x="663.5859375" y="298" style="font-size: 16px; font-family: danielbd;"><tspan x="662.5859375">Done</tspan></text></g><path d="M685.2,62.0C676.8,116.7 693.6,225.0 685.2,272.0" stroke="#000000" fill="none" style="stroke-width: 2;"></path><g class="signal"><text x="89.4296875" y="89.5" style="font-size: 16px; font-family: danielbd;"><tspan x="88.4296875">Requirements doc</tspan></text><path d="M78.4,105.0C120.4,98.0 211.2,112.0 253.1,105.0" stroke="#000000" fill="none" style="stroke-width: 2; marker-end: url(&quot;#markerArrowBlock&quot;);"></path></g><g class="signal"><text x="264.1015625" y="135.5" style="font-size: 16px; font-family: danielbd;"><tspan x="263.1015625">Architecture doc</tspan></text><path d="M253.1,142.0C381.8,135.2 395.3,148.8 422.4,142.0" stroke="#000000" fill="none" style="stroke-width: 2; marker-end: url(&quot;#markerArrowBlock&quot;);"></path></g><g class="signal"><text x="458.55078125" y="172" style="font-size: 16px; font-family: danielbd;"><tspan x="456.55078125">Software</tspan></text><path d="M422.4,178.0C536.8,171.9 468.9,184.1 574.3,178.0" stroke="#000000" fill="none" style="stroke-width: 2; marker-end: url(&quot;#markerArrowBlock&quot;);"></path></g><g class="signal"><text x="455.66015625" y="208.5" style="font-size: 16px; font-family: danielbd;"><tspan x="454.66015625">QA failed</tspan></text><path d="M574.3,215.0C459.3,208.9 522.1,221.1 422.4,215.0" stroke="#000000" fill="none" style="stroke-width: 2; stroke-dasharray: 6, 2; marker-end: url(&quot;#markerArrowBlock&quot;);"></path></g><g class="signal"><text x="600.203125" y="245.5" style="font-size: 16px; font-family: danielbd;"><tspan x="599.203125">Release</tspan></text><path d="M574.3,252.0C615.6,256.4 658.6,247.6 685.2,252.0" stroke="#000000" fill="none" style="stroke-width: 2; marker-end: url(&quot;#markerArrowBlock&quot;);"></path></g></svg>